<?xml version="1.0" standalone="no"?>
<!DOCTYPE svg PUBLIC "-//W3C//DTD SVG 20010904//EN"
 "http://www.w3.org/TR/2001/REC-SVG-20010904/DTD/svg10.dtd">
<svg version="1.0" xmlns="http://www.w3.org/2000/svg"
 width="420.000000pt" height="420.000000pt" viewBox="0 0 420.000000 420.000000"
 preserveAspectRatio="xMidYMid meet">
<metadata>
Created by potrace 1.14, written by Peter Selinger 2001-2017
</metadata>
<g transform="translate(0.000000,420.000000) scale(0.100000,-0.100000)"
fill="#000000" stroke="none">
<path d="M1447 3647 c-37 -13 -81 -37 -98 -53 -52 -49 -101 -147 -114 -228 -3
-17 -10 -55 -15 -84 -5 -29 -9 -56 -9 -60 1 -4 1 -21 0 -39 l-1 -31 -505 -1
c-569 -1 -555 1 -629 -77 -77 -82 -71 21 -74 -1214 -3 -1214 -5 -1155 58
-1232 17 -20 56 -49 88 -65 l57 -28 1895 1 1895 0 45 23 c25 13 62 41 82 63
72 76 68 7 68 1235 0 1207 3 1138 -60 1201 -76 77 -202 106 -460 106 -102 0
-237 -4 -300 -9 -127 -9 -376 -13 -383 -5 -2 3 -7 36 -11 74 -20 214 -77 341
-180 400 -66 39 -150 49 -336 41 -192 -9 -427 -9 -730 -1 -207 6 -218 5 -283
-17z m-727 -598 c66 -30 127 -90 161 -156 20 -41 24 -62 24 -143 0 -83 -4
-101 -27 -145 -32 -62 -103 -129 -166 -157 -73 -32 -190 -30 -262 5 -88 43
-142 101 -174 187 -63 170 30 363 205 423 66 23 172 17 239 -14z m1475 -263
c202 -17 425 -124 573 -275 292 -299 360 -737 170 -1101 -129 -247 -346 -417
-626 -492 -100 -26 -314 -29 -414 -5 -436 105 -746 478 -751 905 -2 133 8 206
44 314 27 83 40 112 90 198 81 141 237 286 389 361 63 31 200 82 200 74 0 -3
12 0 26 5 15 6 58 13 98 17 39 3 72 7 74 8 1 1 19 1 40 -1 20 -2 60 -5 87 -8z"/>
<path d="M530 2980 c-181 -51 -239 -258 -111 -391 115 -118 308 -85 377 65 29
62 27 142 -4 203 -22 42 -91 106 -128 117 -34 10 -107 14 -134 6z"/>
<path d="M2057 2544 c-1 -1 -27 -4 -57 -7 -344 -37 -612 -351 -604 -707 2
-113 23 -199 71 -297 193 -392 700 -512 1051 -248 141 106 235 260 266 438 45
262 -60 524 -275 685 -105 79 -251 130 -385 136 -36 1 -65 1 -67 0z"/>
</g>
</svg>
