<?xml version="1.0" standalone="no"?>
<!DOCTYPE svg PUBLIC "-//W3C//DTD SVG 20010904//EN"
 "http://www.w3.org/TR/2001/REC-SVG-20010904/DTD/svg10.dtd">
<svg version="1.0" xmlns="http://www.w3.org/2000/svg"
 width="700.000000pt" height="700.000000pt" viewBox="0 0 700.000000 700.000000"
 preserveAspectRatio="xMidYMid meet">
<metadata>
Created by potrace 1.14, written by Peter Selinger 2001-2017
</metadata>
<g transform="translate(0.000000,700.000000) scale(0.100000,-0.100000)"
fill="#000000" stroke="none">
<path d="M3182 6958 c-195 -16 -338 -144 -377 -338 -2 -8 -4 -62 -4 -120 l-1
-105 -98 -24 c-378 -93 -843 -315 -1127 -538 -366 -288 -613 -561 -830 -918
-149 -245 -300 -600 -360 -850 -22 -89 -65 -311 -70 -360 -4 -33 -9 -69 -11
-80 -8 -42 -18 -246 -18 -375 0 -177 14 -368 34 -475 6 -27 12 -68 16 -90 3
-22 20 -103 39 -180 204 -855 754 -1586 1531 -2037 73 -43 283 -146 371 -182
56 -23 311 -113 323 -114 3 0 25 -5 50 -12 25 -7 52 -14 60 -16 34 -8 181 -42
185 -43 3 0 20 -3 38 -6 78 -13 96 -15 172 -24 44 -6 114 -13 155 -17 80 -7
398 -7 465 0 165 16 227 23 265 30 14 3 41 7 60 10 142 22 465 110 585 160 17
7 66 28 110 46 295 123 650 345 870 546 304 277 520 547 697 869 211 386 349
835 384 1255 16 177 8 591 -12 692 -2 13 -11 66 -19 118 -20 127 -21 132 -60
283 -145 559 -422 1043 -830 1452 -157 158 -177 176 -308 278 -345 269 -739
464 -1167 576 l-105 28 -2 104 c-4 158 -25 225 -97 313 -68 82 -161 132 -266
142 -84 9 -555 10 -648 2z"/>
</g>
</svg>
