<?xml version="1.0" standalone="no"?>
<!DOCTYPE svg PUBLIC "-//W3C//DTD SVG 20010904//EN"
 "http://www.w3.org/TR/2001/REC-SVG-20010904/DTD/svg10.dtd">
<svg version="1.0" xmlns="http://www.w3.org/2000/svg"
 width="2394.000000pt" height="2394.000000pt" viewBox="0 0 2394.000000 2394.000000"
 preserveAspectRatio="xMidYMid meet">
<metadata>
Created by potrace 1.14, written by Peter Selinger 2001-2017
</metadata>
<g transform="translate(0.000000,2394.000000) scale(0.100000,-0.100000)"
fill="#000000" stroke="none">
<path d="M12706 22043 c-1 -2 -72 -5 -157 -8 -164 -6 -274 -12 -274 -15 0 0
-36 -3 -80 -5 -75 -3 -215 -14 -260 -20 -11 -2 -39 -4 -63 -4 -24 -1 -41 -4
-39 -8 3 -5 -19 -7 -49 -6 -30 0 -54 -2 -54 -6 0 -3 -19 -5 -41 -3 -24 3 -39
0 -36 -5 3 -5 -10 -7 -30 -5 -20 3 -33 1 -30 -4 3 -5 -18 -9 -46 -10 -29 -1
-63 -4 -77 -7 -14 -3 -42 -6 -63 -6 -21 -1 -36 -4 -34 -8 3 -5 -9 -8 -26 -7
-17 0 -65 -5 -106 -13 -238 -42 -364 -67 -432 -84 -42 -10 -93 -21 -115 -25
-21 -3 -42 -8 -45 -10 -3 -2 -20 -6 -38 -9 -58 -10 -454 -115 -528 -140 -23
-8 -52 -16 -65 -19 -29 -6 -463 -150 -543 -180 -33 -13 -98 -38 -145 -56 -146
-55 -393 -157 -555 -230 -27 -12 -162 -78 -300 -145 -215 -106 -327 -165 -517
-274 -21 -11 -55 -30 -75 -42 -21 -12 -65 -37 -98 -58 -33 -20 -68 -40 -77
-46 -111 -64 -380 -240 -558 -364 -127 -89 -329 -238 -340 -250 -3 -4 -32 -26
-65 -51 -50 -37 -205 -162 -304 -245 -72 -60 -217 -188 -345 -305 -195 -177
-670 -668 -791 -817 -11 -14 -30 -37 -43 -52 -127 -146 -308 -375 -448 -566
-52 -71 -100 -137 -107 -145 -7 -8 -48 -69 -92 -135 -44 -66 -83 -121 -87
-123 -5 -2 -8 -10 -8 -18 0 -8 -4 -14 -10 -14 -5 0 -10 -4 -10 -8 0 -5 -26
-49 -58 -98 -33 -49 -102 -161 -154 -249 -105 -176 -116 -194 -195 -340 -30
-55 -58 -107 -63 -115 -31 -50 -310 -624 -310 -637 0 -2 -14 -35 -31 -71 -17
-37 -42 -96 -56 -132 -13 -36 -29 -73 -34 -83 -15 -27 -123 -310 -164 -428
-166 -477 -301 -966 -380 -1379 -8 -41 -21 -106 -29 -145 -7 -38 -16 -88 -20
-110 -3 -22 -8 -51 -10 -65 -3 -14 -7 -44 -10 -68 -3 -23 -7 -45 -9 -50 -3 -4
-8 -34 -11 -67 -4 -33 -11 -87 -16 -120 -9 -60 -25 -194 -35 -290 -3 -27 -8
-66 -10 -85 -2 -19 -7 -75 -11 -125 -3 -49 -8 -97 -9 -106 -2 -8 -6 -83 -10
-165 -4 -82 -9 -174 -11 -204 -5 -83 -5 -703 1 -800 14 -284 17 -320 30 -460
3 -36 8 -90 11 -120 10 -115 13 -142 35 -315 16 -118 17 -127 23 -162 l6 -33
-37 5 c-21 3 -49 8 -63 10 -14 3 -45 7 -70 10 -25 3 -61 7 -80 10 -111 15
-440 21 -570 10 -147 -12 -191 -17 -310 -36 -218 -36 -435 -96 -647 -180 -187
-73 -477 -238 -612 -348 -25 -20 -54 -43 -66 -51 -29 -22 -226 -220 -259 -260
-98 -122 -178 -267 -221 -400 -55 -174 -34 -380 53 -505 63 -90 170 -106 244
-37 32 29 36 47 41 197 9 227 98 339 297 372 39 6 201 5 240 -2 19 -3 62 -10
95 -16 104 -18 301 -75 380 -109 11 -5 61 -25 110 -45 50 -20 174 -79 277
-131 103 -51 222 -106 265 -120 258 -87 507 -58 686 80 27 21 50 36 52 34 1
-2 6 -35 9 -74 15 -167 79 -306 195 -423 115 -116 194 -163 470 -281 l174 -75
24 -55 c14 -30 33 -73 43 -95 10 -22 27 -62 39 -89 75 -173 286 -597 385 -774
51 -92 56 -106 49 -140 -11 -55 -11 -54 4 -92 20 -51 62 -89 110 -102 37 -9
47 -18 75 -67 18 -31 36 -64 40 -74 9 -20 10 -20 42 -6 14 7 23 16 19 22 -3 6
-1 7 4 4 6 -4 125 59 265 139 139 80 348 197 463 259 116 62 253 136 305 164
109 59 788 399 900 450 41 19 131 61 200 93 156 73 147 70 255 117 50 21 115
50 145 63 30 14 96 42 145 63 50 21 108 45 130 55 146 64 644 257 910 352 472
170 1229 395 1552 463 10 2 73 17 140 33 67 17 138 33 158 36 20 4 71 13 113
22 113 23 115 24 145 29 15 3 58 12 95 19 37 8 85 17 107 20 22 4 78 13 126
21 47 8 98 17 115 19 16 2 74 11 129 19 96 15 134 21 220 31 22 3 59 8 83 11
91 11 119 14 172 19 30 3 80 8 110 11 127 12 150 14 245 20 55 4 123 9 150 11
321 27 1073 26 1450 -1 138 -10 224 -16 260 -21 22 -2 65 -6 96 -9 30 -2 76
-6 102 -9 26 -4 67 -8 92 -11 89 -10 141 -16 175 -21 115 -16 180 -25 215 -29
22 -3 51 -8 65 -10 14 -3 41 -7 60 -10 35 -6 93 -15 235 -40 96 -16 495 -98
550 -112 33 -8 71 -17 85 -19 14 -3 33 -7 42 -10 10 -3 29 -7 43 -10 56 -10
551 -139 587 -153 13 -5 26 -9 31 -10 4 0 8 -1 10 -2 1 0 9 -2 17 -4 34 -8
205 -59 340 -103 80 -25 150 -47 155 -48 56 -10 792 -267 1125 -392 191 -72
761 -293 1045 -405 471 -186 773 -304 1020 -399 317 -121 355 -135 550 -205
307 -111 714 -247 935 -313 444 -132 471 -138 486 -113 54 88 192 329 230 400
26 48 50 93 54 98 12 15 214 419 250 500 18 39 45 97 60 130 141 303 356 880
459 1230 86 295 190 709 215 855 2 14 14 72 25 130 12 58 24 121 27 140 3 19
9 58 14 85 10 54 19 110 26 165 2 19 6 46 9 60 2 14 7 45 10 70 3 25 8 56 10
70 2 14 7 52 11 85 3 33 8 74 10 90 2 17 6 55 9 85 3 30 8 69 10 85 2 17 7 71
10 120 4 50 8 108 10 130 28 328 27 1091 0 1455 -10 125 -21 254 -30 330 -2
19 -7 62 -10 95 -3 33 -8 71 -10 85 -13 74 -16 142 -7 153 36 44 290 538 395
767 35 77 167 396 167 405 0 4 6 21 14 38 51 113 231 685 250 794 3 15 17 78
30 138 21 93 39 187 62 328 2 15 6 41 9 58 47 271 -72 458 -372 583 -112 47
-263 89 -399 111 -16 3 -38 7 -50 10 -11 2 -43 7 -70 10 -27 3 -60 8 -74 10
-175 27 -535 50 -903 56 -74 1 -133 7 -141 13 -7 6 -35 52 -61 101 -200 377
-532 892 -809 1255 -44 58 -94 123 -110 145 -17 22 -33 42 -36 45 -3 3 -35 41
-70 85 -225 279 -423 498 -710 785 -199 198 -351 341 -490 460 -14 12 -38 34
-55 48 -16 15 -95 81 -175 146 -80 65 -154 126 -166 135 -167 141 -903 652
-1004 698 -8 4 -54 30 -101 59 -231 139 -691 380 -950 497 -481 217 -994 403
-1484 538 -99 27 -189 51 -200 54 -11 2 -67 16 -125 30 -210 52 -408 92 -685
140 -145 25 -167 28 -300 45 -44 6 -91 13 -105 15 -14 2 -50 6 -80 10 -30 3
-71 7 -90 10 -19 2 -64 7 -100 10 -36 3 -76 8 -90 10 -14 2 -70 7 -125 10 -55
4 -120 8 -145 10 -204 14 -934 28 -944 18z m1818 -803 c51 -19 76 -90 49 -142
-19 -38 -51 -58 -96 -58 -31 0 -46 7 -74 35 -32 32 -35 39 -30 78 10 75 79
115 151 87z m-2263 -119 c90 -20 181 -100 228 -200 22 -48 26 -69 26 -146 -1
-77 -5 -98 -28 -147 -36 -73 -99 -137 -173 -174 -53 -26 -69 -29 -154 -29 -86
1 -100 4 -155 32 -102 53 -174 146 -193 251 -30 164 44 314 191 389 80 40 154
47 258 24z m-2133 -257 c27 -17 42 -52 42 -96 0 -42 -56 -98 -100 -98 -62 0
-110 45 -112 106 -3 87 94 137 170 88z m6213 -93 c8 0 36 -15 62 -32 110 -73
121 -231 21 -318 -45 -40 -77 -53 -134 -53 -114 -2 -203 87 -203 202 0 84 40
149 116 187 34 17 67 20 138 14z m-1656 -673 c217 -113 257 -397 78 -559 -117
-105 -283 -116 -417 -27 -163 107 -196 341 -71 494 73 88 152 123 275 120 70
-2 94 -7 135 -28z m-3380 -552 c371 -67 601 -441 491 -799 -79 -256 -319 -435
-587 -439 -344 -4 -627 269 -631 610 -2 94 5 134 37 225 73 210 282 381 495
404 30 3 56 7 58 8 4 3 106 -3 137 -9z m-2450 -170 c245 -109 274 -443 51
-593 -60 -41 -113 -56 -198 -56 -128 0 -252 88 -305 215 -32 77 -27 192 10
269 79 164 276 238 442 165z m-1604 -174 c17 -21 20 -37 17 -74 -9 -93 -102
-129 -173 -67 -30 27 -35 37 -35 74 0 102 128 146 191 67z m10949 -93 c96 -54
133 -180 80 -275 -27 -47 -39 -59 -91 -86 -97 -50 -222 -8 -275 93 -31 62 -20
158 26 216 62 79 172 101 260 52z m-5171 -566 c21 -45 13 -83 -23 -119 -38
-38 -77 -44 -124 -20 -85 44 -65 175 28 195 42 10 102 -18 119 -56z m3563 -58
c169 -37 272 -239 208 -409 -75 -198 -333 -260 -490 -119 -103 93 -133 229
-77 354 62 140 201 208 359 174z m-7184 -629 c100 -52 143 -177 94 -272 -84
-163 -310 -153 -375 16 -9 25 -17 57 -17 72 0 79 73 176 147 196 48 12 114 7
151 -12z m5152 -118 c213 -101 263 -375 97 -540 -207 -208 -556 -71 -571 225
-7 144 93 286 235 333 66 21 173 13 239 -18z m-8256 -80 c34 -15 55 -48 57
-90 7 -99 -110 -148 -181 -76 -22 22 -30 39 -30 65 0 86 77 137 154 101z
m5880 -178 c17 -5 46 -24 65 -42 87 -81 85 -219 -5 -297 -47 -41 -78 -54 -136
-54 -70 0 -135 37 -173 98 -25 40 -30 58 -29 109 0 50 5 69 28 104 58 86 149
116 250 82z m7230 -4 c70 -29 119 -107 118 -186 -1 -62 -24 -112 -72 -153
-135 -115 -332 -25 -334 153 -2 150 146 245 288 186z m-1408 -337 c42 -26 83
-90 90 -142 18 -132 -101 -253 -229 -233 -149 24 -225 192 -143 316 62 93 185
119 282 59z m-10251 -160 c200 -53 346 -250 340 -459 -9 -346 -370 -560 -680
-403 -67 35 -166 136 -198 203 -53 113 -64 227 -31 340 22 79 58 137 124 201
117 115 286 160 445 118z m1951 -480 c71 -67 14 -192 -83 -183 -41 3 -80 32
-88 64 -13 48 -13 56 1 88 25 61 120 78 170 31z m6935 -290 c66 -29 140 -110
162 -179 49 -153 -16 -311 -158 -380 -42 -21 -64 -25 -135 -24 -72 0 -93 4
-136 27 -132 67 -200 230 -154 366 60 178 249 264 421 190z m-4710 -125 c68
-46 101 -141 79 -224 -21 -80 -119 -150 -206 -150 -99 1 -196 103 -196 205 0
167 185 264 323 169z m2235 -274 c45 -32 55 -80 29 -135 -30 -61 -112 -75
-164 -26 -36 33 -42 60 -27 113 19 67 101 92 162 48z m9469 -222 c-27 -165
-105 -467 -179 -688 -127 -384 -336 -851 -542 -1211 -42 -74 -88 -154 -102
-179 -76 -135 -318 -499 -445 -670 -101 -137 -290 -377 -311 -395 -6 -5 -22
-23 -35 -40 -12 -16 -53 -64 -89 -105 -250 -279 -533 -555 -777 -755 -27 -22
-53 -45 -59 -51 -58 -57 -608 -449 -686 -487 -8 -5 -31 -18 -51 -30 -135 -82
-501 -271 -634 -327 -11 -5 -40 -18 -65 -28 -25 -11 -67 -28 -95 -38 -27 -10
-52 -20 -55 -23 -3 -4 -12 -7 -20 -9 -13 -3 -153 -51 -200 -69 -8 -3 -24 -8
-35 -10 -11 -2 -22 -8 -23 -13 -2 -6 -7 -8 -12 -5 -4 3 -34 -4 -66 -15 -32
-11 -70 -23 -84 -25 -14 -3 -50 -12 -80 -21 -75 -21 -395 -92 -450 -99 -25 -3
-67 -10 -95 -15 -27 -5 -72 -12 -100 -15 -27 -3 -68 -8 -90 -10 -292 -36 -824
-40 -1085 -10 -140 17 -155 19 -367 52 -95 15 -173 30 -173 34 0 4 16 10 36
14 84 15 317 100 424 154 139 70 183 94 190 102 3 4 28 24 56 45 29 22 82 67
119 102 53 49 74 62 98 62 46 0 282 36 424 65 287 58 584 153 901 287 185 79
462 217 594 297 64 39 146 88 181 109 112 66 430 290 548 386 14 12 43 35 65
51 47 37 230 192 299 254 82 75 456 451 517 521 32 36 69 79 83 95 15 17 52
61 83 100 31 38 65 79 75 90 87 94 406 553 520 748 190 323 351 672 444 960
18 58 19 59 88 89 39 16 144 65 234 109 90 44 165 78 168 75 6 -6 -76 -276
-107 -351 -5 -11 -34 -83 -66 -160 -95 -234 -211 -458 -415 -800 -146 -246
-494 -706 -766 -1013 -88 -100 -455 -467 -558 -559 -44 -40 -98 -88 -120 -108
-53 -48 -347 -284 -455 -365 -104 -78 -360 -251 -455 -309 -38 -23 -77 -46
-85 -51 -161 -101 -441 -244 -735 -375 -137 -61 -439 -165 -640 -218 -145 -39
-140 -38 -315 -71 -131 -24 -141 -25 -200 -32 -30 -3 -57 -8 -59 -10 -11 -11
73 -1 226 26 235 41 240 42 433 94 485 129 1045 388 1550 714 417 270 803 585
1191 972 190 189 252 256 401 425 49 56 189 226 213 259 11 16 26 34 33 42 37
39 239 319 334 464 71 108 188 299 188 306 0 2 15 27 33 56 29 46 209 401 245
483 37 85 123 310 145 380 35 113 54 174 66 220 10 37 18 45 88 85 43 24 134
79 202 122 68 43 126 77 128 74 5 -5 -46 -222 -83 -351 -188 -648 -539 -1327
-1010 -1952 -98 -129 -295 -372 -344 -424 -8 -8 -49 -53 -90 -100 -94 -106
-417 -429 -534 -534 -49 -44 -94 -84 -100 -90 -6 -5 -40 -35 -76 -65 -36 -30
-70 -59 -76 -65 -29 -26 -235 -185 -319 -247 -27 -21 -54 -41 -60 -46 -55 -44
-324 -222 -410 -272 -16 -9 -64 -38 -105 -63 -402 -244 -972 -487 -1380 -587
-47 -12 -96 -25 -110 -30 -14 -5 -39 -11 -57 -14 -38 -5 -184 -34 -233 -46
-58 -15 65 -1 135 15 33 8 76 16 95 19 42 6 326 80 390 101 358 118 557 199
850 346 227 114 473 256 656 379 132 89 336 233 384 272 19 16 40 32 45 36 23
17 101 77 111 87 6 5 29 24 50 40 34 27 90 73 120 100 6 6 45 39 85 75 253
222 556 531 749 760 30 36 57 67 60 70 35 32 313 396 406 531 466 675 805
1430 924 2055 7 34 15 65 19 70 3 5 40 35 81 66 41 31 100 77 130 102 30 25
57 45 58 46 2 0 1 -19 -3 -42z m-19133 -244 c133 -99 101 -308 -53 -359 -119
-40 -240 28 -267 150 -12 55 -12 54 9 109 28 75 79 119 154 136 39 8 124 -11
157 -36z m2032 -189 c47 -31 56 -114 18 -158 -8 -9 -32 -22 -52 -28 -85 -26
-162 60 -127 139 28 65 101 86 161 47z m6336 -60 c97 -50 72 -188 -37 -201
-36 -4 -45 -1 -77 29 -30 29 -36 41 -36 75 0 62 40 104 108 111 7 0 26 -6 42
-14z m9319 -392 c-41 -117 -75 -207 -103 -268 -13 -27 -27 -61 -31 -75 -15
-49 -223 -447 -300 -575 -103 -171 -312 -486 -335 -505 -3 -3 -17 -21 -30 -40
-40 -59 -283 -359 -340 -420 -8 -9 -55 -61 -105 -115 -100 -110 -295 -307
-401 -404 -131 -120 -149 -137 -239 -212 -279 -233 -649 -492 -920 -645 -160
-90 -401 -210 -540 -268 -60 -26 -119 -51 -130 -56 -69 -30 -432 -155 -482
-165 -10 -1 -61 -14 -113 -28 -52 -14 -106 -28 -120 -30 -14 -3 -65 -13 -115
-22 -92 -18 -104 -20 -165 -29 -19 -3 -44 -7 -55 -10 -11 -2 -46 -7 -77 -10
l-58 -7 52 68 c28 37 64 89 80 114 27 44 32 47 91 58 34 7 87 19 117 28 30 8
63 17 73 19 37 7 197 57 322 101 548 193 1076 494 1590 907 105 85 109 88 273
236 357 321 763 785 997 1140 28 41 52 77 55 80 8 7 127 199 187 300 115 193
276 521 332 676 l23 61 66 23 c37 12 81 28 97 35 17 7 86 34 155 60 69 26 132
51 140 56 38 21 39 8 9 -78z m-605 -255 c-117 -278 -302 -616 -497 -908 -96
-144 -279 -394 -343 -470 -231 -273 -280 -327 -469 -515 -367 -367 -712 -640
-1130 -897 -298 -183 -642 -345 -980 -461 -160 -55 -418 -127 -453 -127 -6 0
9 42 32 93 24 50 46 100 49 109 4 10 36 26 84 42 237 76 509 197 808 359 98
53 439 266 480 300 6 4 60 45 122 90 102 76 180 137 207 162 6 6 54 46 105 90
154 130 375 344 512 497 37 40 82 90 100 110 19 20 43 49 54 64 11 15 25 32
30 38 6 6 37 45 70 86 32 41 62 77 65 80 24 19 310 442 310 458 0 6 4 12 8 14
24 10 240 422 311 593 66 157 73 172 85 173 6 0 34 7 61 15 187 55 299 90 355
110 36 12 66 19 68 15 2 -4 -18 -58 -44 -120z m-12931 99 c44 -19 60 -42 63
-90 2 -47 -13 -75 -53 -98 -89 -51 -195 53 -144 142 17 30 57 58 84 59 10 0
32 -6 50 -13z m10374 -21 c43 -10 110 -44 131 -67 55 -58 8 -155 -116 -241
-42 -29 -192 -102 -192 -93 0 2 -17 -2 -37 -9 -43 -15 -130 -30 -155 -27 -9 1
-19 -3 -23 -9 -3 -6 -12 -7 -18 -3 -21 13 -49 14 -41 1 5 -7 3 -8 -7 -2 -8 5
-25 10 -39 12 -65 8 -147 48 -169 84 -18 29 -23 80 -10 112 14 35 95 127 103
118 3 -3 6 -1 6 5 0 5 18 18 40 28 22 10 37 21 35 25 -3 4 1 7 8 7 6 -1 50 11
96 26 46 15 107 31 135 35 53 9 215 7 253 -2z m2006 -156 c-3 -11 -9 -23 -14
-26 -5 -3 -9 -12 -9 -21 0 -8 -6 -29 -14 -46 -8 -18 -24 -54 -36 -82 -39 -87
-179 -364 -215 -423 -6 -9 -27 -46 -48 -82 -102 -175 -247 -385 -409 -591 -86
-111 -102 -129 -208 -250 -127 -146 -438 -449 -590 -575 -19 -16 -46 -40 -60
-53 -35 -33 -234 -183 -339 -256 -356 -248 -712 -441 -1091 -590 -54 -21 -182
-64 -192 -65 -4 0 1 24 11 53 10 28 21 68 25 88 6 35 11 38 159 112 225 112
355 189 572 336 112 76 342 246 365 271 3 3 34 29 70 59 36 30 74 64 86 75 11
12 47 44 79 71 78 67 321 315 437 446 107 121 297 365 378 484 30 44 68 100
85 125 27 40 75 120 181 300 51 88 144 276 190 389 24 57 45 105 46 106 5 4
141 47 161 51 21 4 50 13 172 55 50 17 100 33 112 35 12 2 32 8 45 13 40 16
57 13 51 -9z m-630 -182 c-5 -7 -20 -40 -33 -73 -31 -79 -173 -368 -200 -405
-12 -17 -18 -30 -14 -30 4 0 0 -8 -8 -17 -8 -10 -30 -45 -48 -78 -78 -140
-340 -516 -443 -635 -12 -14 -44 -52 -72 -85 -46 -55 -70 -82 -134 -154 -64
-71 -251 -258 -337 -337 -53 -49 -102 -94 -108 -100 -11 -11 -146 -123 -176
-147 -9 -7 -38 -30 -65 -52 -27 -22 -92 -70 -145 -107 -52 -37 -100 -71 -105
-75 -22 -17 -185 -123 -189 -123 -3 0 -24 -13 -48 -29 -24 -15 -70 -43 -103
-61 -33 -18 -65 -37 -71 -41 -18 -15 -236 -120 -240 -116 -2 2 3 35 10 73 8
38 16 80 18 94 2 19 26 40 98 89 76 51 245 173 294 212 71 57 282 234 321 269
230 209 522 527 691 753 46 62 87 117 91 122 11 14 145 216 160 240 7 11 31
52 55 90 84 137 244 453 283 557 22 58 25 61 100 78 33 8 65 15 70 16 6 2 24
6 40 9 48 10 93 21 190 48 106 29 132 32 118 15z m-583 -136 c0 -11 -97 -227
-144 -319 -181 -360 -465 -767 -761 -1092 -266 -292 -619 -603 -925 -813 -93
-64 -89 -63 -85 -26 7 53 17 171 18 205 0 29 13 44 111 127 129 110 370 345
477 465 41 46 79 89 84 95 79 84 272 344 387 521 143 221 284 486 358 675 39
101 33 90 56 94 48 9 110 20 119 21 9 1 28 4 120 21 10 2 37 6 59 10 23 3 46
9 53 13 19 10 73 13 73 3z m-530 -92 c0 -19 -63 -167 -130 -305 -178 -367
-408 -711 -699 -1045 -70 -81 -357 -370 -431 -434 -25 -22 -58 -51 -73 -65
l-28 -26 5 150 c3 83 5 167 5 188 1 30 10 47 44 85 152 165 395 502 547 757
67 112 212 394 254 495 55 131 68 156 84 156 9 1 49 4 87 8 39 4 90 10 115 12
35 4 164 24 213 33 4 0 7 -3 7 -9z m-555 -133 c-56 -151 -194 -432 -294 -599
-131 -222 -380 -574 -473 -672 l-28 -30 5 85 c2 46 7 136 10 200 3 64 8 127
10 140 2 13 6 51 10 84 15 147 58 341 88 399 46 92 156 244 234 324 46 47 83
94 83 104 0 10 3 18 8 19 4 0 50 1 102 3 111 4 253 16 260 23 14 13 8 -21 -15
-80z m-13124 -70 c90 -37 140 -139 116 -233 -7 -29 -24 -65 -38 -82 -57 -74
-177 -97 -258 -51 -44 25 -100 98 -102 133 0 12 -2 29 -4 39 -2 10 3 40 11 65
35 118 161 177 275 129z m-1787 -848 c30 -16 76 -69 92 -106 29 -68 7 -170
-47 -223 -83 -79 -204 -78 -285 4 -166 165 30 430 240 325z m4381 -983 c214
-9 394 -21 475 -31 19 -2 71 -7 115 -10 44 -3 94 -8 110 -10 17 -2 57 -7 90
-10 64 -6 277 -32 335 -41 19 -2 67 -9 105 -15 39 -5 81 -11 95 -14 14 -2 45
-7 70 -10 25 -3 152 -24 282 -45 130 -22 242 -40 250 -41 8 0 9 -2 2 -5 -6 -3
-92 9 -190 25 -99 17 -244 40 -324 51 -80 11 -161 23 -180 26 -118 17 -324 41
-520 59 -36 4 -81 8 -100 10 -401 42 -1162 52 -1535 20 -231 -19 -255 -22
-340 -34 -38 -5 -94 -13 -124 -16 -30 -4 -62 -8 -72 -10 -9 -2 -39 -7 -66 -11
-51 -7 -73 -11 -113 -19 -14 -2 -36 -7 -50 -9 -124 -22 -389 -88 -570 -142
-324 -97 -677 -249 -953 -409 -142 -83 -133 -77 -255 -160 -57 -38 -113 -77
-125 -85 -61 -40 -170 -128 -286 -230 -108 -94 -95 -82 -187 -171 -93 -89
-128 -113 -64 -44 131 141 328 327 430 406 25 19 47 37 50 40 34 40 354 252
525 346 149 83 477 233 508 233 7 0 17 4 23 9 9 8 324 116 367 126 12 2 82 20
155 39 168 44 302 72 482 102 145 23 119 19 320 43 47 6 117 13 155 16 39 3
93 8 120 10 28 2 122 7 210 11 88 3 161 7 162 8 5 4 479 -2 618 -8z m2048
-256 c5 -4 -15 -3 -45 2 -29 5 -55 12 -58 15 -8 8 94 -9 103 -17z m137 -21
c36 -6 69 -15 73 -19 4 -4 -36 1 -89 12 -54 10 -100 21 -103 24 -3 4 8 4 24 1
17 -4 59 -12 95 -18z m160 -35 c3 -3 -10 -4 -28 -1 -19 3 -37 8 -40 12 -4 3 9
3 28 0 19 -3 37 -8 40 -11z m57 -10 c-3 -3 -12 -4 -19 -1 -8 3 -5 6 6 6 11 1
17 -2 13 -5z m40 -10 c-3 -3 -12 -4 -19 -1 -8 3 -5 6 6 6 11 1 17 -2 13 -5z
m96 -21 c-7 -2 -19 -2 -25 0 -7 3 -2 5 12 5 14 0 19 -2 13 -5z m11733 -364
c21 -22 29 -40 29 -69 0 -109 -132 -150 -193 -60 -72 106 75 221 164 129z
m-13099 -19 c87 -53 44 -192 -61 -192 -81 0 -129 79 -91 152 31 60 92 77 152
40z m-2897 -97 c44 -31 90 -110 90 -156 0 -131 -105 -229 -230 -214 -94 11
-175 94 -182 186 -6 81 62 188 135 210 57 18 141 6 187 -26z m5612 -453 c50
-14 115 -82 131 -138 38 -128 -62 -262 -195 -262 -109 0 -208 98 -208 206 0
36 30 109 57 138 52 57 134 78 215 56z m-4402 -320 c45 -13 103 -61 123 -102
80 -169 -70 -347 -243 -288 -87 30 -139 99 -141 188 -2 85 44 156 124 192 47
22 85 25 137 10z m13557 -437 c61 -28 123 -96 151 -164 28 -65 24 -177 -7
-242 -30 -62 -86 -118 -148 -148 -67 -33 -197 -34 -263 -1 -191 93 -235 349
-87 497 35 35 105 74 152 85 52 12 147 -1 202 -27z m-15242 -389 c65 -19 126
-91 140 -165 8 -43 -9 -113 -37 -152 -52 -72 -158 -103 -238 -69 -111 48 -159
154 -117 263 38 100 146 152 252 123z m-3025 -111 c-11 -17 -11 -17 -6 0 3 10
6 24 7 30 0 9 2 9 5 0 3 -7 0 -20 -6 -30z m16075 -744 c95 -26 163 -125 151
-220 -19 -144 -169 -224 -295 -159 -164 84 -141 327 35 380 40 12 63 12 109
-1z m2422 -421 c12 -6 30 -27 39 -46 31 -66 -10 -140 -83 -148 -49 -6 -84 12
-106 57 -21 44 -14 89 20 123 36 36 76 40 130 14z"/>
<path d="M17640 10609 l-55 -6 62 0 c34 0 68 4 75 8 14 9 15 9 -82 -2z"/>
<path d="M17753 10613 c9 -2 23 -2 30 0 6 3 -1 5 -18 5 -16 0 -22 -2 -12 -5z"/>
<path d="M17358 10593 c6 -2 18 -2 25 0 6 3 1 5 -13 5 -14 0 -19 -2 -12 -5z"/>
<path d="M17448 10593 c12 -2 30 -2 40 0 9 3 -1 5 -23 4 -22 0 -30 -2 -17 -4z"/>
<path d="M18142 10441 c-56 -7 -101 -16 -98 -18 5 -5 199 17 205 23 10 10 -10
9 -107 -5z"/>
<path d="M17913 10413 c15 -2 37 -2 50 0 12 2 0 4 -28 4 -27 0 -38 -2 -22 -4z"/>
<path d="M17628 10403 c7 -3 16 -2 19 1 4 3 -2 6 -13 5 -11 0 -14 -3 -6 -6z"/>
<path d="M17698 10403 c6 -2 18 -2 25 0 6 3 1 5 -13 5 -14 0 -19 -2 -12 -5z"/>
<path d="M17768 10403 c12 -2 30 -2 40 0 9 3 -1 5 -23 4 -22 0 -30 -2 -17 -4z"/>
<path d="M18875 14465 c-5 -2 -22 -6 -38 -9 -22 -5 -27 -11 -23 -31 10 -53
-80 -100 -114 -60 -18 22 -25 19 -45 -19 -41 -75 25 -122 157 -113 110 7 220
61 252 121 31 60 -20 108 -118 112 -34 1 -65 0 -71 -1z"/>
<path d="M12307 9004 c-1 -1 -112 -5 -247 -9 -135 -3 -265 -8 -290 -10 -25 -1
-90 -6 -145 -9 -55 -4 -120 -9 -145 -11 -108 -9 -188 -16 -225 -20 -22 -3 -67
-7 -100 -10 -33 -3 -77 -7 -97 -10 -21 -3 -55 -7 -75 -10 -21 -2 -119 -16
-218 -31 -99 -14 -196 -28 -215 -30 -29 -4 -204 -34 -275 -48 -11 -2 -94 -18
-185 -36 -177 -34 -613 -131 -695 -155 -27 -8 -142 -39 -255 -69 -335 -89
-562 -159 -1005 -310 -198 -67 -660 -238 -720 -266 -11 -5 -90 -37 -175 -70
-85 -34 -168 -68 -185 -75 -16 -7 -95 -41 -175 -75 -80 -34 -163 -70 -185 -80
-22 -10 -80 -36 -130 -58 -49 -22 -119 -53 -155 -70 -36 -16 -105 -49 -154
-71 -269 -125 -721 -349 -971 -481 -55 -29 -145 -76 -200 -105 -55 -29 -197
-106 -315 -172 -118 -66 -237 -133 -265 -148 -27 -15 -52 -29 -54 -31 -3 -3
197 -306 254 -384 205 -279 437 -578 530 -682 l33 -36 94 46 c235 118 654 304
984 437 555 225 1187 432 1704 560 164 40 253 61 299 71 12 3 53 12 90 21 36
8 73 17 81 18 8 1 29 5 45 8 17 4 41 9 55 12 14 3 48 9 75 15 28 5 62 12 77
14 15 3 78 14 140 25 136 25 342 58 418 66 30 3 62 8 70 10 8 2 44 7 80 10 36
3 76 8 90 10 14 2 52 6 85 10 33 3 71 8 85 10 14 2 65 6 114 10 50 4 98 8 108
10 10 2 70 7 135 11 65 4 136 8 158 9 324 23 960 23 1315 0 143 -9 251 -16
295 -20 28 -3 73 -7 100 -10 98 -9 270 -26 300 -30 17 -2 53 -7 80 -10 28 -3
61 -8 75 -10 27 -4 93 -12 175 -21 28 -3 57 -7 65 -9 8 -3 33 -7 55 -10 538
-78 1110 -201 1815 -394 269 -73 1240 -381 1325 -421 11 -5 101 -38 200 -74
291 -104 828 -309 955 -363 44 -19 56 -24 165 -66 113 -44 430 -174 470 -192
17 -8 71 -30 120 -51 50 -20 110 -45 135 -56 67 -29 53 -23 510 -214 234 -97
443 -185 465 -195 39 -17 204 -86 513 -215 86 -36 166 -70 177 -74 40 -18 54
-14 102 30 28 25 92 83 144 130 117 105 505 493 619 619 109 120 95 104 170
191 36 41 67 77 70 80 3 3 28 32 55 65 28 33 52 62 55 65 39 38 343 437 473
621 134 191 150 219 135 224 -7 2 -96 29 -198 60 -227 69 -691 223 -765 255
-11 4 -114 43 -230 85 -327 121 -1233 480 -1362 540 -17 8 -34 15 -38 15 -3 0
-25 8 -48 19 -54 24 -523 217 -647 266 -52 21 -113 45 -135 55 -22 10 -139 57
-260 104 -121 48 -229 91 -240 96 -66 29 -614 233 -825 307 -378 132 -819 272
-1065 338 -55 15 -131 36 -169 47 -38 11 -76 21 -85 23 -9 2 -92 22 -186 45
-93 23 -177 43 -185 45 -8 2 -109 24 -225 49 -115 25 -226 48 -245 51 -39 6
-134 23 -165 29 -11 2 -45 7 -75 12 -30 4 -57 8 -60 9 -16 4 -89 16 -115 19
-16 2 -68 10 -115 16 -47 7 -94 14 -106 15 -48 6 -212 26 -254 31 -25 2 -63 6
-85 9 -22 2 -69 7 -105 10 -36 4 -81 8 -100 10 -19 2 -82 6 -140 10 -58 4
-123 8 -145 10 -96 8 -702 24 -708 19z"/>
<path d="M10418 6655 c-2 -1 -82 -5 -178 -9 -96 -3 -191 -8 -210 -10 -19 -3
-80 -7 -135 -11 -55 -3 -116 -8 -135 -10 -19 -2 -66 -6 -105 -10 -38 -3 -81
-7 -95 -10 -14 -2 -54 -7 -90 -10 -36 -3 -75 -7 -85 -9 -11 -2 -51 -7 -90 -11
-38 -4 -72 -8 -75 -10 -3 -1 -30 -6 -61 -9 -31 -4 -65 -8 -75 -10 -11 -2 -41
-7 -67 -10 -27 -4 -58 -9 -70 -12 -12 -2 -37 -6 -57 -9 -20 -3 -47 -8 -60 -10
-14 -3 -54 -10 -90 -16 -77 -12 -173 -31 -331 -65 -167 -35 -194 -41 -224 -49
-11 -2 -58 -13 -105 -25 -107 -25 -407 -103 -480 -125 -30 -9 -62 -17 -70 -19
-146 -36 -782 -247 -1020 -339 -63 -24 -163 -63 -222 -86 -95 -36 -382 -156
-508 -213 -25 -11 -58 -26 -75 -33 -150 -64 -365 -167 -365 -174 0 -15 243
-275 459 -491 226 -226 317 -313 447 -427 184 -162 172 -154 235 -148 30 3 86
8 124 10 39 3 90 7 115 10 25 2 101 7 170 11 69 3 145 8 170 10 67 5 885 5
960 0 36 -3 120 -8 188 -11 68 -3 140 -8 160 -9 20 -2 75 -7 122 -11 47 -3 99
-8 115 -10 17 -2 64 -7 105 -10 41 -4 83 -9 92 -10 9 -2 48 -7 85 -10 37 -4
75 -8 83 -10 8 -2 42 -7 75 -11 33 -3 67 -7 75 -9 46 -8 99 -16 130 -20 43 -4
107 -14 136 -20 12 -3 39 -7 60 -10 41 -6 133 -22 172 -29 12 -3 86 -17 165
-31 78 -15 158 -30 177 -35 19 -5 46 -11 60 -13 45 -8 333 -77 450 -108 63
-16 124 -32 134 -34 36 -8 342 -96 441 -126 779 -238 1515 -527 2374 -931 209
-99 888 -438 1021 -510 36 -19 115 -61 175 -93 61 -32 124 -65 140 -75 104
-60 205 -109 217 -105 7 2 24 6 38 9 197 35 596 135 880 221 102 30 192 57
200 59 55 16 335 115 490 174 882 334 1714 794 2474 1365 89 66 166 125 172
131 7 6 37 31 68 55 31 24 56 47 56 50 0 3 -53 28 -118 55 -64 27 -139 59
-167 71 -27 13 -156 69 -285 125 -129 56 -255 111 -280 123 -25 11 -79 34
-120 52 -41 18 -181 79 -310 135 -466 203 -810 350 -1040 445 -129 53 -248
103 -265 110 -89 40 -625 250 -945 370 -333 126 -1175 408 -1284 430 -11 3
-40 11 -66 20 -26 9 -55 17 -66 19 -10 3 -48 13 -84 24 -159 49 -668 180 -864
222 -54 12 -106 23 -115 25 -62 14 -211 45 -234 49 -43 8 -139 26 -172 32 -16
3 -39 7 -50 9 -11 1 -78 13 -150 25 -71 12 -141 23 -155 25 -14 2 -45 6 -70
10 -25 4 -58 9 -75 11 -16 2 -41 6 -55 9 -14 2 -50 7 -80 10 -30 4 -66 8 -80
10 -14 2 -50 6 -80 10 -30 3 -66 8 -80 10 -14 2 -54 7 -90 10 -36 3 -78 8 -95
10 -16 2 -68 6 -115 10 -47 4 -101 8 -120 10 -19 2 -84 7 -145 10 -60 4 -130
9 -155 11 -51 5 -917 14 -922 9z"/>
<path d="M7317 4174 c-1 -1 -114 -4 -252 -8 -278 -7 -443 -15 -464 -22 -7 -2
30 -38 90 -84 57 -44 109 -83 114 -88 6 -4 28 -21 50 -37 22 -17 42 -33 45
-36 3 -3 84 -62 180 -130 167 -119 269 -188 460 -311 144 -92 169 -108 176
-108 4 0 15 -6 23 -14 39 -33 380 -221 646 -356 331 -167 407 -203 655 -305
63 -26 130 -54 148 -62 84 -37 352 -135 547 -201 132 -44 308 -100 339 -107 6
-1 18 -5 26 -8 17 -7 119 -36 123 -35 1 0 22 -5 47 -12 25 -7 46 -12 47 -12 2
1 26 -6 55 -14 28 -9 59 -17 69 -19 10 -2 44 -11 76 -19 108 -30 465 -107 553
-120 19 -3 81 -14 137 -24 73 -13 106 -15 114 -8 9 8 10 8 6 0 -8 -14 16 -21
65 -20 20 1 34 -2 32 -5 -5 -9 214 -32 227 -23 7 4 9 3 6 -3 -4 -7 22 -13 71
-18 42 -4 86 -9 97 -11 11 -2 52 -5 90 -8 39 -3 70 -6 70 -7 0 -1 18 -3 40 -4
22 -2 76 -6 120 -10 387 -33 1170 -39 1525 -10 25 2 86 6 135 10 50 3 108 8
130 10 66 8 126 14 200 20 39 4 77 8 85 10 8 2 42 7 75 11 33 3 69 8 80 10 11
2 45 7 75 10 30 3 60 9 67 12 19 11 -474 276 -1022 550 -504 252 -801 389
-1245 574 -203 85 -408 166 -605 240 -154 58 -728 253 -790 269 -16 4 -61 17
-100 29 -38 11 -77 23 -85 25 -9 1 -54 14 -100 28 -147 43 -328 92 -380 102
-8 2 -44 11 -80 20 -36 9 -76 19 -90 22 -13 2 -63 13 -110 24 -47 11 -150 33
-230 49 -143 28 -165 33 -265 50 -88 16 -349 59 -390 64 -22 3 -74 11 -115 17
-41 5 -91 12 -110 14 -19 2 -51 6 -70 9 -19 2 -62 7 -95 11 -33 3 -73 8 -90
10 -76 10 -226 22 -365 30 -58 4 -118 8 -135 10 -16 3 -163 7 -325 10 -162 4
-319 8 -348 8 -30 1 -54 2 -55 1z"/>
</g>
</svg>
